# xmcd
#
# Track frame offsets: 
#        150
#        15538
#        45821
#        76789
#        95915
#        115144
#        135171
#        143423
#        174606
#        199797
#
# Disc length: 3539 seconds
#
# Revision: 1
# Processed by: cddbd v1.5.2PL0 Copyright (c) Steve Scherf et al.
# Submitted via: ExactAudioCopy v0.99pb5
#
DISCID=700dd10a
DTITLE=Childs - Yui
DYEAR=2006
DGENRE=Jazz
TTITLE0=Intro
TTITLE1=Yui
TTITLE2=Marysal
TTITLE3=S.A.D.
TTITLE4=Reki
TTITLE5=Oliver
TTITLE6=
TTITLE7=Post: Seele
TTITLE8=Mariana
TTITLE9=Ian P
EXTD=YEAR: 2006
EXTT0=
EXTT1=
EXTT2=
EXTT3=
EXTT4=
EXTT5=
EXTT6=
EXTT7=
EXTT8=
EXTT9=
PLAYORDER=
